{"accessors":[{"bufferView":2,"componentType":5126,"count":240,"max":[0.6000000238418579,0.30000001192092896,0.06499999761581421],"min":[-0.6000000238418579,-0.30000001192092896,-0.02500000037252903],"type":"VEC3","byteOffset":0},{"bufferView":2,"byteOffset":2880,"componentType":5126,"count":240,"max":[1,1,1],"min":[-1,-1,-1],"type":"VEC3"},{"bufferView":3,"componentType":5126,"count":240,"max":[0,0,0,1],"min":[-1,0,0,1],"type":"VEC4","byteOffset":0},{"bufferView":1,"componentType":5126,"count":240,"max":[0.9998999834060669,0.9997000098228455],"min":[0.00009999999747378752,0.00009999999747378752],"type":"VEC2","byteOffset":0},{"bufferView":0,"componentType":5125,"count":420,"max":[239],"min":[0],"type":"SCALAR","byteOffset":0},{"bufferView":2,"byteOffset":5760,"componentType":5126,"count":243,"max":[0.6000000238418579,0.46175000071525574,0.13089999556541443],"min":[-0.625,-0.46893998980522156,-0.07548999786376953],"type":"VEC3"},{"bufferView":2,"byteOffset":8676,"componentType":5126,"count":243,"max":[1,1,1],"min":[-1,-1,-1],"type":"VEC3"},{"bufferView":3,"byteOffset":3840,"componentType":5126,"count":243,"max":[1,0.9999712109565735,0.9999088644981384,1],"min":[-0.9365757703781128,-1,-0.9997947812080383,-1],"type":"VEC4"},{"bufferView":1,"byteOffset":1920,"componentType":5126,"count":243,"max":[0.985729992389679,0.9866300225257874],"min":[0.0002500000118743628,0.0002500000118743628],"type":"VEC2"},{"bufferView":0,"byteOffset":1680,"componentType":5125,"count":399,"max":[242],"min":[0],"type":"SCALAR"}],"asset":{"extras":{"author":"Steph (https://sketchfab.com/StephC.Art)","license":"CC-BY-NC-4.0 (http://creativecommons.org/licenses/by-nc/4.0/)","source":"https://sketchfab.com/models/9eb657f12e68482d9f6e9f0fb2c2d9ba","title":"Chocolate Bars"},"generator":"Sketchfab-3.18.7","version":"2.0"},"bufferViews":[{"buffer":0,"byteLength":3276,"byteOffset":0,"name":"floatBufferViews","target":34963},{"buffer":0,"byteLength":3864,"byteOffset":3276,"byteStride":8,"name":"floatBufferViews","target":34962},{"buffer":0,"byteLength":11592,"byteOffset":7140,"byteStride":12,"name":"floatBufferViews","target":34962},{"buffer":0,"byteLength":7728,"byteOffset":18732,"byteStride":16,"name":"floatBufferViews","target":34962},{"buffer":0,"byteOffset":26460,"byteLength":34490},{"buffer":0,"byteOffset":60952,"byteLength":5361}],"buffers":[{"byteLength":66316,"uri":"data:application/octet-stream;base64,"}],"extensionsRequired":["KHR_materials_pbrSpecularGlossiness"],"extensionsUsed":["KHR_materials_pbrSpecularGlossiness"],"images":[{"bufferView":4,"mimeType":"image/png"},{"bufferView":5,"mimeType":"image/png"}],"materials":[{"doubleSided":true,"emissiveFactor":[0,0,0],"extensions":{"KHR_materials_pbrSpecularGlossiness":{"diffuseFactor":[1,1,1,1],"diffuseTexture":{"index":0,"texCoord":0},"glossinessFactor":0,"specularFactor":[0,0,0]}},"name":"Material.001","alphaMode":"OPAQUE"},{"doubleSided":true,"emissiveFactor":[0,0,0],"extensions":{"KHR_materials_pbrSpecularGlossiness":{"diffuseFactor":[1,1,1,1],"diffuseTexture":{"index":1,"texCoord":0},"glossinessFactor":1,"specularFactor":[0,0,0]}},"name":"Material.003","alphaMode":"OPAQUE"}],"meshes":[{"name":"Cube.001_0","primitives":[{"attributes":{"NORMAL":1,"POSITION":0,"TANGENT":2,"TEXCOORD_0":3},"indices":4,"material":1,"mode":4}]},{"name":"Cube_0","primitives":[{"attributes":{"NORMAL":6,"POSITION":5,"TANGENT":7,"TEXCOORD_0":8},"indices":9,"material":0,"mode":4}]}],"nodes":[{"children":[1],"name":"RootNode (gltf orientation matrix)","rotation":[-0.7071067811865475,0,0,0.7071067811865476],"translation":[0,0,0],"scale":[1,1,1]},{"children":[2],"name":"RootNode (model correction matrix)"},{"children":[3,5,7],"name":"Root"},{"children":[4],"matrix":[-0.85091,0.46815,-0.23831000000000002,0,-0.47875,-0.8778200000000002,-0.015030000000000003,0,-0.21623000000000003,0.10131,0.97107,0,-0.55028,0.56986,0.41925,1],"name":"Cube.001"},{"mesh":0,"name":"Cube.001_0"},{"children":[6],"matrix":[-0.29086000000000006,0.9551700000000001,-0.05519000000000001,0,-0.7711,-0.19988000000000003,0.6045200000000001,0,0.5663900000000001,0.21839000000000003,0.7946700000000001,0,1.4033499999999999,0.30654000000000003,3.7803300000000006,1],"name":"Lamp"},{"name":"Lamp"},{"children":[8],"matrix":[0.18768,0.97989,-0.06772000000000003,0,-0.9819599999999999,0.18879000000000004,0.010380000000000002,0,0.022960000000000008,0.06455000000000001,0.99765,0,0,0,0.44578000000000007,1],"name":"Cube"},{"mesh":1,"name":"Cube_0"}],"samplers":[{"magFilter":9729,"minFilter":9987,"wrapS":10497,"wrapT":10497}],"scene":0,"scenes":[{"name":"OSG_Scene","nodes":[0]}],"textures":[{"sampler":0,"source":0},{"sampler":0,"source":1}]}
